STARTFONT 2.1
FONT -JDECW-Mincho-Medium-R-Normal--18-180-75-75-M-180-JISX0208.1983-1.3
SIZE 18 75 75
FONTBOUNDINGBOX 20 20 0 -4

STARTPROPERTIES 26
FONTNAME_REGISTRY ""
FAMILY_NAME "Mincho"
FOUNDRY "JDECW"
WEIGHT_NAME "Medium"
SLANT "R"
SETWIDTH_NAME "Normal"
ADD_STYLE_NAME ""
PIXEL_SIZE 18
POINT_SIZE 180
RESOLUTION_X 75
RESOLUTION_Y 75
SPACING "M"
AVERAGE_WIDTH 180
CHARSET_REGISTRY "JISX0208.1983"
CHARSET_ENCODING "1"
DEVICE_FONT_NAME "Mincho-JISX0208.1983-1"
CHARSET_COLLECTIONS "JISX0208.1983 1"
FULL_NAME "Mincho-JISX0208.1983-1"
COPYRIGHT "Copyright (c) 1990 1991 TYPEBANK, Digital Equipment Corporation Japan"
CAP_HEIGHT 14
X_HEIGHT 9
WEIGHT 10
QUAD_WIDTH 20
DEFAULT_CHAR 41634
FONT_DESCENT 4
FONT_ASCENT 16
ENDPROPERTIES

CHARS 59

STARTCHAR Ca1a2
ENCODING 41378
SWIDTH 1000 0
DWIDTH 20 0
BBX 20 20 0 -4
BITMAP
000000
000100
000080
000040
000020
000000
000000
000000
000000
000000
000000
000000
000000
000000
000000
000000
000000
000000
000000
000000
ENDCHAR

STARTCHAR Ca1a3
ENCODING 41379
SWIDTH 1000 0
DWIDTH 20 0
BBX 20 20 0 -4
BITMAP
000000
0001C0
000220
000220
000220
0001C0
000000
000000
000000
000000
000000
000000
000000
000000
000000
000000
000000
000000
000000
000000
ENDCHAR

STARTCHAR Ca1a4
ENCODING 41380
SWIDTH 1000 0
DWIDTH 20 0
BBX 20 20 0 -4
BITMAP
000000
0000C0
0001E0
0001E0
000060
000040
000180
000000
000000
000000
000000
000000
000000
000000
000000
000000
000000
000000
000000
000000
ENDCHAR

STARTCHAR Ca1a5
ENCODING 41381
SWIDTH 1000 0
DWIDTH 20 0
BBX 20 20 0 -4
BITMAP
000000
000180
0003C0
0003C0
000180
000000
000000
000000
000000
000000
000000
000000
000000
000000
000000
000000
000000
000000
000000
000000
ENDCHAR

STARTCHAR Ca1b1
ENCODING 41393
SWIDTH 1000 0
DWIDTH 20 0
BBX 20 20 0 -4
BITMAP
000000
000020
000020
000020
000020
000020
000020
000020
000020
000020
000020
000020
000020
000020
000020
000020
000020
000020
000020
000000
ENDCHAR

STARTCHAR Ca1b2
ENCODING 41394
SWIDTH 1000 0
DWIDTH 20 0
BBX 20 20 0 -4
BITMAP
000000
400000
400000
400000
400000
400000
400000
400000
400000
400000
400000
400000
400000
400000
400000
400000
400000
400000
400000
000000
ENDCHAR

STARTCHAR Ca1bc
ENCODING 41404
SWIDTH 1000 0
DWIDTH 20 0
BBX 20 20 0 -4
BITMAP
000000
000000
008000
004000
004000
004000
004000
004000
004000
004000
004000
004000
004000
004000
004000
004000
00C000
004000
000000
000000
ENDCHAR

STARTCHAR Ca1bd
ENCODING 41405
SWIDTH 1000 0
DWIDTH 20 0
BBX 20 20 0 -4
BITMAP
000000
002000
002000
002000
002000
002000
002000
002000
002000
002000
002000
002000
002000
002000
002000
002000
002000
002000
002000
000000
ENDCHAR

STARTCHAR Ca1be
ENCODING 41406
SWIDTH 1000 0
DWIDTH 20 0
BBX 20 20 0 -4
BITMAP
000000
000000
000000
000000
000000
000000
002000
002000
002000
002000
002000
002000
002000
000000
000000
000000
000000
000000
000000
000000
ENDCHAR

STARTCHAR Ca1c1
ENCODING 41409
SWIDTH 1000 0
DWIDTH 20 0
BBX 20 20 0 -4
BITMAP
000000
000000
000000
002000
004000
008000
008000
008000
008000
004000
002000
001000
001000
001000
001000
002000
004000
000000
000000
000000
ENDCHAR

STARTCHAR Ca1c2
ENCODING 41410
SWIDTH 1000 0
DWIDTH 20 0
BBX 20 20 0 -4
BITMAP
000000
000000
000000
000000
000000
000000
000000
000000
7FFFE0
000000
000000
7FFFE0
000000
000000
000000
000000
000000
000000
000000
000000
ENDCHAR

STARTCHAR Ca1c3
ENCODING 41411
SWIDTH 1000 0
DWIDTH 20 0
BBX 20 20 0 -4
BITMAP
000000
000000
000000
000000
000000
000000
000000
000000
000000
7FFFE0
000000
000000
000000
000000
000000
000000
000000
000000
000000
000000
ENDCHAR

STARTCHAR Ca1c4
ENCODING 41412
SWIDTH 1000 0
DWIDTH 20 0
BBX 20 20 0 -4
BITMAP
000000
000000
000000
006000
006000
000000
000000
000000
000000
006000
006000
000000
000000
000000
000000
006000
006000
000000
000000
000000
ENDCHAR

STARTCHAR Ca1c5
ENCODING 41413
SWIDTH 1000 0
DWIDTH 20 0
BBX 20 20 0 -4
BITMAP
000000
000000
000000
000000
000000
006000
006000
000000
000000
000000
000000
000000
000000
006000
006000
000000
000000
000000
000000
000000
ENDCHAR

STARTCHAR Ca1c6
ENCODING 41414
SWIDTH 1000 0
DWIDTH 20 0
BBX 20 20 0 -4
BITMAP
000000
000000
000000
000000
000000
000000
000000
000000
000000
000000
000000
000000
000000
000000
000000
000100
0003C0
0003A0
000120
000000
ENDCHAR

STARTCHAR Ca1c7
ENCODING 41415
SWIDTH 1000 0
DWIDTH 20 0
BBX 20 20 0 -4
BITMAP
000000
000240
0002E0
0001E0
000040
000000
000000
000000
000000
000000
000000
000000
000000
000000
000000
000000
000000
000000
000000
000000
ENDCHAR

STARTCHAR Ca1c8
ENCODING 41416
SWIDTH 1000 0
DWIDTH 20 0
BBX 20 20 0 -4
BITMAP
000000
000000
000000
000000
000000
000000
000000
000000
000000
000000
000100
0003C0
0003A0
000120
000000
000100
0003C0
0003A0
000120
000000
ENDCHAR

STARTCHAR Ca1c9
ENCODING 41417
SWIDTH 1000 0
DWIDTH 20 0
BBX 20 20 0 -4
BITMAP
000000
000240
0002E0
0001E0
000040
000000
000240
0002E0
0001E0
000040
000000
000000
000000
000000
000000
000000
000000
000000
000000
000000
ENDCHAR

STARTCHAR Ca1ca
ENCODING 41418
SWIDTH 1000 0
DWIDTH 20 0
BBX 20 20 0 -4
BITMAP
000000
000000
000000
000000
000000
000000
000000
000000
000000
000000
000000
000000
000000
000000
01F800
060600
180180
200040
400020
000000
ENDCHAR

STARTCHAR Ca1cb
ENCODING 41419
SWIDTH 1000 0
DWIDTH 20 0
BBX 20 20 0 -4
BITMAP
000000
400020
200040
180180
060600
01F800
000000
000000
000000
000000
000000
000000
000000
000000
000000
000000
000000
000000
000000
000000
ENDCHAR

STARTCHAR Ca1cc
ENCODING 41420
SWIDTH 1000 0
DWIDTH 20 0
BBX 20 20 0 -4
BITMAP
000000
000000
000000
000000
000000
000000
000000
000000
000000
000000
000000
000000
000000
000000
1FFF80
200040
200040
400020
400020
000000
ENDCHAR

STARTCHAR Ca1cd
ENCODING 41421
SWIDTH 1000 0
DWIDTH 20 0
BBX 20 20 0 -4
BITMAP
000000
400020
400020
200040
200040
1FFF80
000000
000000
000000
000000
000000
000000
000000
000000
000000
000000
000000
000000
000000
000000
ENDCHAR

STARTCHAR Ca1ce
ENCODING 41422
SWIDTH 1000 0
DWIDTH 20 0
BBX 20 20 0 -4
BITMAP
000000
000000
000000
000000
000000
000000
000000
000000
000000
000000
000000
000000
000000
000000
7FFFE0
400020
400020
400020
400020
000000
ENDCHAR

STARTCHAR Ca1cf
ENCODING 41423
SWIDTH 1000 0
DWIDTH 20 0
BBX 20 20 0 -4
BITMAP
000000
400020
400020
400020
400020
7FFFE0
000000
000000
000000
000000
000000
000000
000000
000000
000000
000000
000000
000000
000000
000000
ENDCHAR

STARTCHAR Ca1d0
ENCODING 41424
SWIDTH 1000 0
DWIDTH 20 0
BBX 20 20 0 -4
BITMAP
000000
000000
000000
000000
000000
000000
000000
000000
000000
000000
000000
000000
000000
002000
005000
1F8F80
200040
400020
400020
000000
ENDCHAR

STARTCHAR Ca1d1
ENCODING 41425
SWIDTH 1000 0
DWIDTH 20 0
BBX 20 20 0 -4
BITMAP
000000
400020
400020
200040
1F8F80
005000
002000
000000
000000
000000
000000
000000
000000
000000
000000
000000
000000
000000
000000
000000
ENDCHAR

STARTCHAR Ca1d2
ENCODING 41426
SWIDTH 1000 0
DWIDTH 20 0
BBX 20 20 0 -4
BITMAP
000000
000000
000000
000000
000000
000000
000000
000000
000000
000000
006000
009000
010800
020400
040200
080100
100080
200040
400020
000000
ENDCHAR

STARTCHAR Ca1d3
ENCODING 41427
SWIDTH 1000 0
DWIDTH 20 0
BBX 20 20 0 -4
BITMAP
000000
400020
200040
100080
080100
040200
020400
010800
009000
006000
000000
000000
000000
000000
000000
000000
000000
000000
000000
000000
ENDCHAR

STARTCHAR Ca1d4
ENCODING 41428
SWIDTH 1000 0
DWIDTH 20 0
BBX 20 20 0 -4
BITMAP
000000
000000
000000
000000
000000
000000
000000
006000
009000
010800
026400
049200
090900
120480
240240
480120
100080
200040
400020
000000
ENDCHAR

STARTCHAR Ca1d5
ENCODING 41429
SWIDTH 1000 0
DWIDTH 20 0
BBX 20 20 0 -4
BITMAP
000000
400020
200040
100080
480120
240240
120480
090900
049200
026400
010800
009000
006000
000000
000000
000000
000000
000000
000000
000000
ENDCHAR

STARTCHAR Ca1d6
ENCODING 41430
SWIDTH 1000 0
DWIDTH 20 0
BBX 20 20 0 -4
BITMAP
000000
000000
000000
000000
000000
000000
000000
000000
000000
000000
000000
000000
000000
07FFE0
000020
000020
000020
000020
000020
000000
ENDCHAR

STARTCHAR Ca1d7
ENCODING 41431
SWIDTH 1000 0
DWIDTH 20 0
BBX 20 20 0 -4
BITMAP
000000
400000
400000
400000
400000
400000
7FFE00
000000
000000
000000
000000
000000
000000
000000
000000
000000
000000
000000
000000
000000
ENDCHAR

STARTCHAR Ca1d8
ENCODING 41432
SWIDTH 1000 0
DWIDTH 20 0
BBX 20 20 0 -4
BITMAP
000000
000000
000000
000000
000000
000000
000000
000000
000000
000000
000000
07FFE0
040020
040020
07FF20
000120
000120
000120
0001E0
000000
ENDCHAR

STARTCHAR Ca1d9
ENCODING 41433
SWIDTH 1000 0
DWIDTH 20 0
BBX 20 20 0 -4
BITMAP
000000
780000
480000
480000
480000
4FFE00
400200
400200
7FFE00
000000
000000
000000
000000
000000
000000
000000
000000
000000
000000
000000
ENDCHAR

STARTCHAR Ca1da
ENCODING 41434
SWIDTH 1000 0
DWIDTH 20 0
BBX 20 20 0 -4
BITMAP
000000
000000
000000
000000
000000
000000
000000
000000
000000
000000
000000
000000
000000
000000
7FFFE0
7FFFE0
7E07E0
7000E0
400020
000000
ENDCHAR

STARTCHAR Ca1db
ENCODING 41435
SWIDTH 1000 0
DWIDTH 20 0
BBX 20 20 0 -4
BITMAP
000000
400020
7000E0
7E07E0
7FFFE0
7FFFE0
000000
000000
000000
000000
000000
000000
000000
000000
000000
000000
000000
000000
000000
000000
ENDCHAR

STARTCHAR Ca2a2
ENCODING 41634
SWIDTH 1000 0
DWIDTH 20 0
BBX 20 20 0 -4
BITMAP
000000
000000
000000
1FFF80
100080
100080
100080
100080
100080
100080
100080
100080
100080
100080
100080
100080
1FFF80
000000
000000
000000
ENDCHAR

STARTCHAR Ca4a1
ENCODING 42145
SWIDTH 1000 0
DWIDTH 20 0
BBX 20 20 0 -4
BITMAP
000000
000000
000000
006000
002000
022C00
01F000
004000
004800
007F00
00C880
015040
025040
022040
024080
018F00
000000
000000
000000
000000
ENDCHAR

STARTCHAR Ca4a3
ENCODING 42147
SWIDTH 1000 0
DWIDTH 20 0
BBX 20 20 0 -4
BITMAP
000000
000000
000000
000000
000000
020000
020200
020100
020080
020080
022040
012040
014000
00C000
004000
000000
000000
000000
000000
000000
ENDCHAR

STARTCHAR Ca4a5
ENCODING 42149
SWIDTH 1000 0
DWIDTH 20 0
BBX 20 20 0 -4
BITMAP
000000
000000
000000
001800
000600
000800
000000
004F00
003080
000040
000040
000040
000080
000080
000300
001C00
000000
000000
000000
000000
ENDCHAR

STARTCHAR Ca4a7
ENCODING 42151
SWIDTH 1000 0
DWIDTH 20 0
BBX 20 20 0 -4
BITMAP
000000
000000
000000
006000
001800
002000
000400
011E00
00E400
000800
001000
003800
004400
008400
010400
0203C0
000000
000000
000000
000000
ENDCHAR

STARTCHAR Ca4a9
ENCODING 42153
SWIDTH 1000 0
DWIDTH 20 0
BBX 20 20 0 -4
BITMAP
000000
000000
000000
00C000
004100
004880
027040
01C000
004000
005F00
00E080
014040
024040
024040
024880
018700
000000
000000
000000
000000
ENDCHAR

STARTCHAR Ca4c3
ENCODING 42179
SWIDTH 1000 0
DWIDTH 20 0
BBX 20 20 0 -4
BITMAP
000000
000000
000000
000000
000000
000F00
027080
018040
000040
000040
000040
000080
000300
003C00
000000
000000
000000
000000
000000
000000
ENDCHAR

STARTCHAR Ca4e3
ENCODING 42211
SWIDTH 1000 0
DWIDTH 20 0
BBX 20 20 0 -4
BITMAP
000000
000000
000000
001800
018400
008000
008780
005840
04E020
034020
002440
002380
001000
001000
001000
000800
000800
000000
000000
000000
ENDCHAR

STARTCHAR Ca4e5
ENCODING 42213
SWIDTH 1000 0
DWIDTH 20 0
BBX 20 20 0 -4
BITMAP
000000
000000
000000
000600
010200
008200
008780
009A40
012220
014220
014220
019220
008A40
008780
000200
000400
000800
000000
000000
000000
ENDCHAR

STARTCHAR Ca4e7
ENCODING 42215
SWIDTH 1000 0
DWIDTH 20 0
BBX 20 20 0 -4
BITMAP
000000
000000
000000
000C00
000400
000400
0004C0
000700
000400
000400
000400
000400
007E00
008580
008440
007800
000000
000000
000000
000000
ENDCHAR

STARTCHAR Ca4ee
ENCODING 42222
SWIDTH 1000 0
DWIDTH 20 0
BBX 20 20 0 -4
BITMAP
000000
000000
000000
018000
008000
04C000
038F00
00B080
00C040
018040
028040
028040
048040
048080
018F00
008000
000000
000000
000000
000000
ENDCHAR

STARTCHAR Ca5a1
ENCODING 42401
SWIDTH 1000 0
DWIDTH 20 0
BBX 20 20 0 -4
BITMAP
000000
000000
000000
000080
020FC0
01F100
000200
001400
000800
000800
000800
000800
001000
001000
002000
004000
000000
000000
000000
000000
ENDCHAR

STARTCHAR Ca5a3
ENCODING 42403
SWIDTH 1000 0
DWIDTH 20 0
BBX 20 20 0 -4
BITMAP
000000
000000
000000
000180
000040
000080
000100
000200
000C00
001400
006400
018400
000400
000400
000400
000400
000400
000000
000000
000000
ENDCHAR

STARTCHAR Ca5a5
ENCODING 42405
SWIDTH 1000 0
DWIDTH 20 0
BBX 20 20 0 -4
BITMAP
000000
000000
000000
003000
001000
021080
01FFC0
010080
010080
010080
010100
000100
000200
000400
000800
003000
000000
000000
000000
000000
ENDCHAR

STARTCHAR Ca5a7
ENCODING 42407
SWIDTH 1000 0
DWIDTH 20 0
BBX 20 20 0 -4
BITMAP
000000
000000
000000
000000
000000
000000
080800
07FC00
004000
004000
004000
004000
204200
1FFF00
000000
000000
000000
000000
000000
000000
ENDCHAR

STARTCHAR Ca5a9
ENCODING 42409
SWIDTH 1000 0
DWIDTH 20 0
BBX 20 20 0 -4
BITMAP
000000
000000
000000
000C00
000400
000480
0207C0
01FC00
001400
002400
002400
004400
008400
011400
020C00
000800
000000
000000
000000
000000
ENDCHAR

STARTCHAR Ca5c3
ENCODING 42435
SWIDTH 1000 0
DWIDTH 20 0
BBX 20 20 0 -4
BITMAP
000000
000000
000000
0000C0
001040
011040
010840
008880
008080
000080
000100
000100
000200
000400
001800
006000
000000
000000
000000
000000
ENDCHAR

STARTCHAR Ca5e3
ENCODING 42467
SWIDTH 1000 0
DWIDTH 20 0
BBX 20 20 0 -4
BITMAP
000000
000000
000000
00C000
004000
002080
0027C0
047880
03A100
001200
001000
001000
001000
000800
000800
000800
000000
000000
000000
000000
ENDCHAR

STARTCHAR Ca5e5
ENCODING 42469
SWIDTH 1000 0
DWIDTH 20 0
BBX 20 20 0 -4
BITMAP
000000
000000
000000
000000
000000
081000
07F800
001000
001000
001000
002000
002000
202200
1FFF00
000000
000000
000000
000000
000000
000000
ENDCHAR

STARTCHAR Ca5e7
ENCODING 42471
SWIDTH 1000 0
DWIDTH 20 0
BBX 20 20 0 -4
BITMAP
000000
000000
000000
000000
010100
00FF80
000100
000100
008100
007F00
000100
000100
010100
00FF00
000100
000000
000000
000000
000000
000000
ENDCHAR

STARTCHAR Ca5ee
ENCODING 42478
SWIDTH 1000 0
DWIDTH 20 0
BBX 20 20 0 -4
BITMAP
000000
000000
000000
000000
020080
01FFC0
010080
010080
010080
010080
000100
000100
000200
000400
001800
002000
000000
000000
000000
000000
ENDCHAR

STARTCHAR Ca5f5
ENCODING 42485
SWIDTH 1000 0
DWIDTH 20 0
BBX 20 20 0 -4
BITMAP
000000
000000
000000
003000
001000
001000
001080
021FC0
01F080
001080
002080
002080
004080
004900
008500
010300
020200
000000
000000
000000
ENDCHAR

STARTCHAR Ca5f6
ENCODING 42486
SWIDTH 1000 0
DWIDTH 20 0
BBX 20 20 0 -4
BITMAP
000000
000000
000000
00C000
004000
004000
008080
00FFC0
010400
010400
020400
040400
000800
000800
001000
002000
00C000
000000
000000
000000
ENDCHAR
ENDFONT
